<svg xmlns="http://www.w3.org/2000/svg" viewBox="0 0 32 32">
  <!-- Background square -->
  <rect x="0" y="0" width="32" height="32" fill="#1a237e"/>
  
  <!-- S letter converted to path -->
  <path d="M14.01 24.8L14.01 24.74Q12.2 24.74 11.03 24.02Q9.86 23.29 9.86 21.91L9.86 21.91Q9.86 20.99 10.46 20.42Q11.05 19.84 11.91 19.84L11.91 19.84Q12.51 19.84 12.9 20.15Q13.3 20.46 13.45 21L13.45 21Q13.66 21.74 14.06 22.1Q14.46 22.45 15.3 22.45L15.3 22.45Q16 22.45 16.46 22.12Q16.9 21.79 16.9 21.22L16.9 21.22Q16.9 20.7 16.46 20.35Q16 20 14.87 19.63L14.87 19.63Q13.7 19.25 13 18.86Q12.26 18.47 11.74 17.76Q11.21 17.05 11.21 15.95L11.21 15.95Q11.21 14.76 11.85 13.9Q12.5 13.05 13.65 12.58Q14.8 12.12 16.26 12.12L16.26 12.12Q18.25 12.12 19.38 12.9Q20.5 13.69 20.5 15.11L20.5 15.11Q20.5 16.03 19.91 16.6Q19.32 17.17 18.46 17.17L18.46 17.17Q17.84 17.17 17.45 16.86Q17.06 16.54 16.9 15.99L16.9 15.99Q16.77 15.41 16.38 15.08Q16 14.76 15.34 14.76L15.34 14.76Q14.72 14.76 14.34 15.06Q13.98 15.35 13.98 15.84L13.98 15.84Q13.98 16.29 14.34 16.6Q14.72 16.91 15.74 17.25L15.74 17.25Q17.0 17.66 17.78 18.07Q18.56 18.47 19.14 19.22Q19.73 19.96 19.73 21.1L19.73 21.1Q19.73 22.41 19.05 23.33Q18.37 24.26 17.12 24.73Q15.87 25.19 14.01 24.8L14.01 24.8Z" fill="white"/>
</svg>